<?xml version="1.0" standalone="no"?><!DOCTYPE svg PUBLIC "-//W3C//DTD SVG 1.1//EN" "http://www.w3.org/Graphics/SVG/1.1/DTD/svg11.dtd"><svg t="1560310581832" class="icon" style="" viewBox="0 0 1094 1024" version="1.1" xmlns="http://www.w3.org/2000/svg" p-id="2865" xmlns:xlink="http://www.w3.org/1999/xlink" width="200" height="200"><defs><style type="text/css"></style></defs><path d="M1041.655172 564.965517c-29.872552-84.038621-4.696276-139.828966 17.655173-194.206896 7.415172-18.008276 22.56331-32.203034 24.61131-52.012138C868.281379 420.546207 682.902069 740.634483 635.586207 847.448276c-18.926345-29.025103-101.693793-120.86731-141.241379-194.206897-41.136552 34.392276-127.858759 116.841931-127.858759 116.841931C467.614897 806.064552 550.276414 919.693241 635.586207 1024c50.564414-86.439724 139.652414-234.107586 229.517241-335.448276 65.253517-73.586759 132.943448-116.665379 176.551724-123.586207zM620.685241 0.741517v105.825104H302.08V0.847448L620.685241 0.706207zM226.26869 273.44331h470.263172V335.801379H226.26869V273.44331z m0 166.064552h470.263172v62.322759H226.26869v-62.322759z" p-id="2866"></path><path d="M652.641103 683.855448l37.146483-62.322758H575.558621l42.548965 62.322758h34.533517z m-180.25931-62.322758h-246.113103v62.322758h151.728551l94.384552-62.322758z" p-id="2867"></path><path d="M59.392 892.080552V126.764138a35.310345 35.310345 0 0 1 35.310345-35.310345H194.206897V32.485517H35.769379a35.310345 35.310345 0 0 0-35.310345 35.310345v881.69931a35.310345 35.310345 0 0 0 35.310345 35.310345H530.008276l-57.626483-57.37931H94.702345a35.310345 35.310345 0 0 1-35.310345-35.310345z m770.365793 35.310345H774.002759l-45.444414 57.344h159.355586a35.310345 35.310345 0 0 0 35.310345-35.310345v-197.243586l-58.156138 67.442758v72.456828a35.310345 35.310345 0 0 1-35.310345 35.310345z m35.310345-533.43338l58.156138-58.156138V67.725241a35.310345 35.310345 0 0 0-35.310345-35.310344h-147.597241v59.074206h89.441103a35.310345 35.310345 0 0 1 35.310345 35.310345v267.158069z" p-id="2868"></path></svg>