<?xml version="1.0" standalone="no"?><!DOCTYPE svg PUBLIC "-//W3C//DTD SVG 1.1//EN" "http://www.w3.org/Graphics/SVG/1.1/DTD/svg11.dtd"><svg t="1558164221744" class="icon" style="" viewBox="0 0 1024 1024" version="1.1" xmlns="http://www.w3.org/2000/svg" p-id="2454" xmlns:xlink="http://www.w3.org/1999/xlink" width="200" height="200"><defs><style type="text/css"></style></defs><path d="M220.16 996.352c-1.536 0-3.072 0-6.656-1.536-21.504-9.728-25.6-24.064-25.6-30.72v-172.544H119.808c-52.736 0-77.312-24.576-77.312-78.848V155.136c0-54.272 23.04-78.848 77.312-78.848h784.384c52.736 0 77.312 24.576 77.312 78.848v555.52c0 54.272-23.04 78.848-77.312 78.848H406.016l-174.592 201.728c-2.56 3.072-6.144 5.12-11.264 5.12zM115.2 134.656c-9.216 0-12.288 2.048-12.288 13.824v562.176c0 11.264 12.288 22.016 28.16 22.016h90.624c9.728 0 16.384 6.656 16.384 16.384v149.504l149.504-162.816c3.072-3.072 8.192-5.12 11.776-5.12h513.024c7.68 0 12.288-1.536 12.288-13.824V148.48c0-10.752-7.168-13.824-12.288-13.824H115.2z m0 0" p-id="2455"></path><path d="M235.52 346.624h552.96c17.408 0 32.256-14.336 32.256-32.256 0-17.408-14.336-32.256-32.256-32.256H235.52c-17.408 0-32.256 14.336-32.256 32.256s14.336 32.256 32.256 32.256z m0 0M788.48 496.128H235.52c-17.408 0-32.256 14.336-32.256 32.256s14.336 32.256 32.256 32.256h552.96c17.408 0 32.256-14.336 32.256-32.256s-14.336-32.256-32.256-32.256z m0 0" p-id="2456"></path></svg>