<?xml version="1.0" standalone="no"?><!DOCTYPE svg PUBLIC "-//W3C//DTD SVG 1.1//EN" "http://www.w3.org/Graphics/SVG/1.1/DTD/svg11.dtd"><svg t="1558165459522" class="icon" style="" viewBox="0 0 1024 1024" version="1.1" xmlns="http://www.w3.org/2000/svg" p-id="3168" xmlns:xlink="http://www.w3.org/1999/xlink" width="200" height="200"><defs><style type="text/css"></style></defs><path d="M816.501384 461.287565c56.43849 0 108.25645 23.0743 145.192338 60.010187l0.510242 0.510243c36.935887 36.964234 59.499945 87.733363 59.499945 144.171852s-23.0743 108.25645-60.010187 145.192338l-0.510243 0.510242c-36.964234 37.44613-87.733363 60.038534-144.682095 60.038534-56.43849 0-108.25645-23.102646-145.192337-60.038534s-60.038534-88.243605-60.038534-145.192337c0-56.43849 23.102646-108.25645 60.038534-145.192338 37.44613-36.935887 88.753848-60.010187 145.192337-60.010187z m122.599934 82.092349c-31.294873-31.294873-74.89226-50.797475-122.599934-50.797476s-91.333407 19.502602-122.62828 50.797476-50.797475 74.89226-50.797476 122.599933 19.502602 91.333407 50.797476 122.628281 74.920607 50.769129 122.62828 50.769128 90.794818-19.474255 122.599934-50.258886l0.510242-0.510242c31.294873-31.805116 50.797475-74.920607 50.797476-122.628281s-19.502602-90.794818-50.287233-121.579448l-1.020485-1.020485z" p-id="3169" fill="#ffffff"></path><path d="M906.785959 650.587532h-74.382017v-125.689736c0-8.730816-7.200089-15.902558-15.902558-15.902557-8.730816 0-15.902558 7.171742-15.902558 15.902557v141.592294c0 8.730816 7.171742 15.902558 15.902558 15.902558h89.774333c8.730816 0 15.902558-7.171742 15.902558-15.902558-0.510242-8.702469-6.661499-15.902558-15.392316-15.902558z" p-id="3170" fill="#ffffff"></path><path d="M802.441369 206.194663L464.830916 69.024471c-15.789171-5.272506-31.663382-5.272506-47.480899 0L74.580445 206.194663c-21.061676 5.272506-36.964234 31.663382-36.964234 52.725058v400.880523c0 21.061676 10.545012 42.208393 31.691728 52.753405l342.854612 184.56605c5.187465 10.346584 15.477356 10.516665 25.937327 10.516665h0.992138c10.346584 0 20.636474-0.08504 25.82394-5.272506l193.892149-104.344591c-9.524527-11.423763-17.830141-23.924704-24.746761-37.304396l-179.747093 94.196435V443.485771l342.854612-179.293544v198.002436c6.378031-0.595283 12.812756-0.907098 19.332521-0.907098 7.738678 0 15.420662 0.425202 22.960913 1.275606V258.919721c-0.08504-21.146717-15.959251-47.452552-37.020928-52.725058z m-363.944636 205.712767l-100.205957-52.753405 326.980401-163.504374 105.478463 42.208394-332.252907 174.049385z m-21.061676 448.248035L85.09711 680.86192c-5.272506 0-10.516665-10.516665-10.516665-15.789171V264.192227l89.689293 47.480899v158.231868c0 5.272506 5.244159 10.545012 10.516664 15.789171l105.478463 52.753404c15.817517 10.516665 31.691728 0 31.691729-15.78917v-131.897686l105.478463 52.725058v416.669694z m15.817517-754.195106h10.516665l73.815082 26.419222-327.008748 152.874322-84.416787-47.480899 327.093788-131.812645z" p-id="3171" fill="#ffffff"></path></svg>