<?xml version="1.0" standalone="no"?><!DOCTYPE svg PUBLIC "-//W3C//DTD SVG 1.1//EN" "http://www.w3.org/Graphics/SVG/1.1/DTD/svg11.dtd"><svg t="1560310543147" class="icon" style="" viewBox="0 0 1024 1024" version="1.1" xmlns="http://www.w3.org/2000/svg" p-id="1261" xmlns:xlink="http://www.w3.org/1999/xlink" width="200" height="200"><defs><style type="text/css"></style></defs><path d="M801.4 967.6h-70.7c-90 0-160.8-74-160.8-160.8v-70.7c0-90 74-160.8 160.8-160.8h70.7c90 0 160.8 74 160.8 160.8v70.7c0 86.8-74 160.8-160.8 160.8z m115.8-231.5c0-64.3-51.4-115.8-115.8-115.8h-70.7c-64.3 0-115.8 51.5-115.8 115.8v70.7c0 64.3 51.5 115.8 115.8 115.8h70.7c64.3 0 115.8-51.4 115.8-115.8v-70.7z m-138.3 70.7c-12.8 0-22.5-9.6-22.5-22.5V691c0-12.9 9.7-22.5 22.5-22.5 12.9 0 22.5 9.6 22.5 22.5v70.7h70.7c12.8 0 22.5 9.7 22.5 22.5 0 12.9-9.7 22.5-22.5 22.5h-93.2zM245.1 276.2h508.1c12.9 0 22.5 9.6 22.5 22.5s-9.6 22.5-22.5 22.5H245.1c-12.9 0-22.5-9.6-22.5-22.5 0-12.8 9.6-22.5 22.5-22.5z m0 366.6h231.5c12.9 0 22.5 9.6 22.5 22.5s-9.6 22.5-22.5 22.5H245.1c-6 0.2-11.8-2.2-16.1-6.4-4.3-4.2-6.6-10.1-6.4-16.1 0-9.6 9.6-22.5 22.5-22.5z m0-183.3h231.5c12.9 0 22.5 9.6 22.5 22.5s-9.6 22.5-22.5 22.5H245.1c-12.9 0-22.5-9.6-22.5-22.5 0-12.8 9.6-22.5 22.5-22.5zM891.4 228c0-64.3-51.5-115.8-115.8-115.8h-553c-64.3 0-115.8 51.4-115.8 115.8v553.1c0 64.3 51.4 115.8 115.8 115.8h318.3l6.4 45H222.6c-90 0-160.8-74-160.8-160.8V228c0-90 74-160.8 160.8-160.8h553.1c90 0 160.8 74 160.8 160.8v324.8l-45-6.4V228z m0 0" p-id="1262"></path></svg>